/* XPM */
static const char *const arrowdown_xpm[] = {
"24 24 2 1",
"# c #ffffff",
". c #000000",
"........................",
"........................",
"........................",
"#......................#",
"#......................#",
"##....................##",
"##....................##",
"###..................###",
"###..................###",
"####................####",
"####................####",
"#####..............#####",
"#####..............#####",
"######............######",
"######............######",
"#######..........#######",
"#######..........#######",
"########........########",
"########........########",
"#########......#########",
"#########......#########",
"##########....##########",
"##########....##########",
"###########..###########"};
