/* XPM */
static const char *const audio_xpm[] = {
"54 36 2 1",
". c #ffffff",
"+ c #000000",
"......................................................",
"......................................................",
"......................................................",
"......................................................",
"....++++++++++++++++++++++++++++++++++++++++++++++....",
"....++++++++++++++++++++++++++++++++++++++++++++++....",
"....++++++++++++++++++++++++++++++++++++++++++++++....",
"....+++........................................+++....",
"....+++........................................+++....",
"....+++........................................+++....",
"....+++........................................+++....",
"....+++.........++++..............++++.........+++....",
"....+++........++++++............++++++........+++....",
"....+++.......++++++++..........++++++++.......+++....",
"....+++......++++..++++........++++..++++......+++....",
"....+++.....++++....++++......++++....++++.....+++....",
"....+++....++++......++++....++++......++++....+++....",
"....+++....+++........+++....+++........+++....+++....",
"....+++....+++........+++....+++........+++....+++....",
"....+++....++++......++++....++++......++++....+++....",
"....+++.....++++....++++......++++....++++.....+++....",
"....+++......++++..++++........++++..++++......+++....",
"....+++.......++++++++..........++++++++.......+++....",
"....+++........++++++............++++++........+++....",
"....+++.........++++..............++++.........+++....",
"....+++........................................+++....",
"....+++........................................+++....",
"....+++........................................+++....",
"....+++........................................+++....",
"....++++++++++++++++++++++++++++++++++++++++++++++....",
"....++++++++++++++++++++++++++++++++++++++++++++++....",
"....++++++++++++++++++++++++++++++++++++++++++++++....",
"......................................................",
"......................................................",
"......................................................",
"......................................................"};
