/* XPM */
static const char *const audioright_xpm[] = {
"54 36 2 1",
". c #ffffff",
"# c #000000",
"......................................................",
"......................................................",
"......................................................",
"......................................................",
"......................................................",
"......................................................",
"......................................................",
"......................................................",
"...........######....................######...........",
".........##########................##########.........",
"........############..............############........",
".......##############............##############.......",
"......#####......#####..........################......",
".....#####........#####........##################.....",
".....####..........####........##################.....",
"....####............####......####################....",
"....####............####......####################....",
"....####............####......####################....",
"....####............####......####################....",
"....####............####......####################....",
"....####............####......####################....",
".....####..........####........##################.....",
".....#####........#####........##################.....",
"......#####......#####..........################......",
".......##############............##############.......",
"........############..............############........",
".........##########................##########.........",
"...........######....................######...........",
"......................................................",
"......................................................",
"......................................................",
"......................................................",
"......................................................",
"......................................................",
"......................................................",
"......................................................"};
