/* XPM */
static const char *const encrypted_xpm[] = {
"54 36 2 1",
". c #ffffff",
"+ c #000000",
"......................................................",
"......................................................",
"......................................................",
"......................................................",
"....++++++++++++++++++++++++++++++++++++++++++++++....",
"....++++++++++++++++++++++++++++++++++++++++++++++....",
"....++++++++++++++++++++++++++++++++++++++++++++++....",
"....+++........................................+++....",
"....+++........................................+++....",
"....+++........................................+++....",
"....+++...........................++++.........+++....",
"....+++..........................++++++........+++....",
"....+++.........................++++++++.......+++....",
"....+++........................++++++++++......+++....",
"....+++.......................+++++..+++++.....+++....",
"....+++......................+++++....+++++....+++....",
"....+++...+++++++++++++++++++++++......+++++...+++....",
"....+++...++++++++++++++++++++++........++++...+++....",
"....+++...++++++++++++++++++++++........++++...+++....",
"....+++...+++++++++++++++++++++++......+++++...+++....",
"....+++.....++++++...........+++++....+++++....+++....",
"....+++.....++++++............+++++..+++++.....+++....",
"....+++.....++++++.............++++++++++......+++....",
"....+++.....++++++..............++++++++.......+++....",
"....+++.....++++++...............++++++........+++....",
"....+++...........................++++.........+++....",
"....+++........................................+++....",
"....+++........................................+++....",
"....+++........................................+++....",
"....++++++++++++++++++++++++++++++++++++++++++++++....",
"....++++++++++++++++++++++++++++++++++++++++++++++....",
"....++++++++++++++++++++++++++++++++++++++++++++++....",
"......................................................",
"......................................................",
"......................................................",
"......................................................"};
