/* XPM */
static const char *const ffwd_xpm[] = {
"56 52 2 1",
". c #ffffff",
"# c #000000",
"........................................................",
"........................................................",
"........................................................",
"........................................................",
"....####............#####...............................",
"....#####...........#######.............................",
"....######..........########............................",
"....#######.........#########...........................",
"....########........###########.........................",
"....#########........###########........................",
"....##########........###########.......................",
"....###########........############.....................",
"....############........############....................",
"....#############........############...................",
"....##############........#############.................",
"....###############........#############................",
"....################........#############...............",
"....#################........##############.............",
"....##################........##############............",
"....###################........##############...........",
"....####################........###############.........",
"....#####################........###############........",
"....######################........###############.......",
"....#######################........################.....",
"....########################........################....",
"....########################........################....",
"....########################........################....",
"....########################........################....",
"....#######################........################.....",
"....######################........###############.......",
"....#####################........###############........",
"....####################........###############.........",
"....###################........##############...........",
"....##################........##############............",
"....#################........##############.............",
"....################........#############...............",
"....###############........#############................",
"....##############........#############.................",
"....#############........############...................",
"....############........############....................",
"....###########........############.....................",
"....##########........###########.......................",
"....#########........###########........................",
"....########........###########.........................",
"....#######.........#########...........................",
"....######..........########............................",
"....#####...........#######.............................",
"....####............#####...............................",
"........................................................",
"........................................................",
"........................................................",
"........................................................"};
