/* XPM */
static const char *const mute_xpm[] = {
"54 36 2 1",
". c #ffffff",
"# c #000000",
"............#####..............####..............#####",
"............######...........######.............######",
".............######........########............######.",
"..............######.....##########...........######..",
"...............######..############..........######...",
"................######..####...####.........######....",
".................######..#.....####........######.....",
"..................######.......####.......######......",
"...............#...######......####......######.......",
".............####...######.....####.....######........",
"...........#######...######....####....######.........",
"..###############.....######..........######..........",
"###############........######........######...........",
"##############..........######......######............",
"##############...........################.............",
"####.......###............##############..............",
"####.......###.............############...............",
"####.......###..............##########................",
"####.......###..............##########................",
"####.......###.............############...............",
"####.......###............##############..............",
"##############...........################.............",
"##############..........######......######............",
"###############........######........######...........",
"..###############.....######..........######..........",
"...........#######...######....####....######.........",
".............####...######.....####.....######........",
"...............#...######......####......######.......",
"..................######.......####.......######......",
".................######..#.....####........######.....",
"................######..####...####.........######....",
"...............######..############..........######...",
"..............######.....##########...........######..",
".............######........########............######.",
"............######...........######.............######",
"............#####..............####..............#####"};
