/* XPM */
static const char *const mute_xpm[] = {
"52 40 2 1",
". c #ffffff",
"# c #000000",
"............###...............####...............###",
"............####..............####..............####",
"............#####...........######.............#####",
".............#####........########............#####.",
"..............#####.....##########...........#####..",
"...............#####...###########..........#####...",
"................#####..####...####.........#####....",
".................#####..#.....####........#####.....",
"..................#####.......####.......#####......",
"..............##...#####......####......#####.......",
"............#####...#####.....####.....#####........",
"..........########...#####....####....#####.........",
"#################.....#####..........#####..........",
"###############........#####........#####...........",
"##############..........#####......#####............",
"##############...........#####....#####.............",
"####......####............############..............",
"####......####.............##########...............",
"####......####..............########................",
"####......####..............########................",
"####......####..............########................",
"####......####..............########................",
"####......####.............##########...............",
"####......####............############..............",
"##############...........#####....#####.............",
"##############..........#####......#####............",
"###############........#####........#####...........",
"#################.....#####..........#####..........",
"..........########...#####....####....#####.........",
"............#####...#####.....####.....#####........",
"..............##...#####......####......#####.......",
"..................#####.......####.......#####......",
".................#####..#.....####........#####.....",
"................#####..####...####.........#####....",
"...............#####...###########..........#####...",
"..............#####.....##########...........#####..",
".............#####........########............#####.",
"............#####...........######.............#####",
"............####..............####..............####",
"............###...............####...............###"};
