/* XPM */
static const char *const recording_xpm[] = {
"54 36 2 1",
". c #ffffff",
"+ c #000000",
"......................................................",
"......................................................",
"......................................................",
"......................................................",
"....+++++++++++.......++++++++++++....++++++++++++....",
"....++++++++++++.....+++++++++++++...+++++++++++++....",
"....+++++++++++++...++++++++++++++..++++++++++++++....",
"....++++++++++++++..++++++++++++++..++++++++++++++....",
"....+++++....+++++..+++++...........+++++.............",
"....++++......++++..++++............++++..............",
"....++++......++++..++++............++++..............",
"....++++......++++..++++............++++..............",
"....++++......++++..++++............++++..............",
"....++++......++++..++++............++++..............",
"....++++......++++..++++............++++..............",
"....+++++....+++++..+++++...........++++..............",
"....+++++++++++++...++++++++++......++++..............",
"....++++++++++++....++++++++++......++++..............",
"....++++++++++......++++++++++......++++..............",
"....+++++++++.......++++++++++......++++..............",
"....++++++++++......+++++...........++++..............",
"....++++..+++++.....++++............++++..............",
"....++++...+++++....++++............++++..............",
"....++++....+++++...++++............++++..............",
"....++++.....+++++..++++............++++..............",
"....++++......++++..++++............++++..............",
"....++++......++++..++++............++++..............",
"....++++......++++..+++++...........+++++.............",
"....++++......++++..++++++++++++++..++++++++++++++....",
"....++++......++++..++++++++++++++..++++++++++++++....",
"....++++......++++...+++++++++++++...+++++++++++++....",
"....++++......++++....++++++++++++....++++++++++++....",
"......................................................",
"......................................................",
"......................................................",
"......................................................"};
