/* XPM */
static const char *const sfwd_xpm[] = {
"56 52 2 1",
". c #ffffff",
"# c #000000",
"........................................................",
"........................................................",
"........................................................",
"........................................................",
"....##########......#####...............................",
"....##########......#######.............................",
"....##########......########............................",
"....##########......#########...........................",
"....##########......###########.........................",
"....##########......############........................",
"....##########......#############.......................",
"....##########......###############.....................",
"....##########......################....................",
"....##########......#################...................",
"....##########......###################.................",
"....##########......####################................",
"....##########......#####################...............",
"....##########......#######################.............",
"....##########......########################............",
"....##########......#########################...........",
"....##########......###########################.........",
"....##########......############################........",
"....##########......#############################.......",
"....##########......###############################.....",
"....##########......################################....",
"....##########......################################....",
"....##########......################################....",
"....##########......################################....",
"....##########......###############################.....",
"....##########......#############################.......",
"....##########......############################........",
"....##########......###########################.........",
"....##########......#########################...........",
"....##########......########################............",
"....##########......#######################.............",
"....##########......#####################...............",
"....##########......####################................",
"....##########......###################.................",
"....##########......#################...................",
"....##########......################....................",
"....##########......###############.....................",
"....##########......#############.......................",
"....##########......############........................",
"....##########......###########.........................",
"....##########......#########...........................",
"....##########......########............................",
"....##########......#######.............................",
"....##########......#####...............................",
"........................................................",
"........................................................",
"........................................................",
"........................................................"};
