/* XPM */
static const char *const srew_xpm[] = {
"56 52 2 1",
".	c #FFFFFF",
"+	c #000000",
"........................................................",
"........................................................",
"........................................................",
"........................................................",
"...............................+++++......++++++++++....",
".............................+++++++......++++++++++....",
"............................++++++++......++++++++++....",
"...........................+++++++++......++++++++++....",
".........................+++++++++++......++++++++++....",
"........................++++++++++++......++++++++++....",
".......................+++++++++++++......++++++++++....",
".....................+++++++++++++++......++++++++++....",
"....................++++++++++++++++......++++++++++....",
"...................+++++++++++++++++......++++++++++....",
".................+++++++++++++++++++......++++++++++....",
"................++++++++++++++++++++......++++++++++....",
"...............+++++++++++++++++++++......++++++++++....",
".............+++++++++++++++++++++++......++++++++++....",
"............++++++++++++++++++++++++......++++++++++....",
"...........+++++++++++++++++++++++++......++++++++++....",
".........+++++++++++++++++++++++++++......++++++++++....",
"........++++++++++++++++++++++++++++......++++++++++....",
".......+++++++++++++++++++++++++++++......++++++++++....",
".....+++++++++++++++++++++++++++++++......++++++++++....",
"....++++++++++++++++++++++++++++++++......++++++++++....",
"....++++++++++++++++++++++++++++++++......++++++++++....",
"....++++++++++++++++++++++++++++++++......++++++++++....",
"....++++++++++++++++++++++++++++++++......++++++++++....",
".....+++++++++++++++++++++++++++++++......++++++++++....",
".......+++++++++++++++++++++++++++++......++++++++++....",
"........++++++++++++++++++++++++++++......++++++++++....",
".........+++++++++++++++++++++++++++......++++++++++....",
"...........+++++++++++++++++++++++++......++++++++++....",
"............++++++++++++++++++++++++......++++++++++....",
".............+++++++++++++++++++++++......++++++++++....",
"...............+++++++++++++++++++++......++++++++++....",
"................++++++++++++++++++++......++++++++++....",
".................+++++++++++++++++++......++++++++++....",
"...................+++++++++++++++++......++++++++++....",
"....................++++++++++++++++......++++++++++....",
".....................+++++++++++++++......++++++++++....",
".......................+++++++++++++......++++++++++....",
"........................++++++++++++......++++++++++....",
".........................+++++++++++......++++++++++....",
"...........................+++++++++......++++++++++....",
"............................++++++++......++++++++++....",
".............................+++++++......++++++++++....",
"...............................+++++......++++++++++....",
"........................................................",
"........................................................",
"........................................................",
"........................................................"};
