/* XPM */
static const char *const volume_xpm[] = {
"56 28 2 1",
". c #ffffff",
"# c #000000",
"....................................................####",
"....................................................####",
"................................................########",
"................................................########",
"............................................############",
"............................................############",
"........................................################",
"........................................################",
"....................................####################",
"....................................####################",
"................................########################",
"................................########################",
"............................############################",
"............................############################",
"........................################################",
"........................################################",
"....................####################################",
"....................####################################",
"................########################################",
"................########################################",
"............############################################",
"............############################################",
"........################################################",
"........################################################",
"....####################################################",
"....####################################################",
"########################################################",
"########################################################"};
